<?xml version="1.0" encoding="UTF-8"?><svg id="uuid-5448bf3d-efd0-4bdc-851b-21678616e8a7" xmlns="http://www.w3.org/2000/svg" width="48.8mm" height="48.8mm" viewBox="0 0 138.4 138.4"><defs><style>.uuid-93db83fa-8316-4af2-8d4b-aa258415c897{fill:none;}.uuid-d75cd762-e867-4427-a1eb-2a7f5a1f8543{fill:#efa916;}.uuid-3884a7ab-4841-422e-bb06-5f8b36307cbe{fill:#e7202c;}.uuid-1ca7fb99-1a28-46b4-a74a-35a059ea4337{fill:#72bd5a;}.uuid-dce6df8b-90d0-45d8-83e1-3e1c73729451{fill:#3270b7;}.uuid-0a6cb459-8217-418e-b05d-93a899c895a8{fill:#c0e3e0;}.uuid-ceca500a-9332-4f8d-b371-7eaabf0d02fa{fill:#c18cbd;}.uuid-416b402d-6739-4dcc-b46b-b1698cb26503{fill:#231815;}.uuid-63da9b3a-08bb-4c12-8710-6c201fe7553d{fill:#3f2810;}</style></defs><g id="uuid-09e0c79b-0f3c-42fc-8ff7-77e0ec03e9db"><g><g><path class="uuid-416b402d-6739-4dcc-b46b-b1698cb26503" d="m122.9,61.6c22.7-.6-24.5,28.6-52.8,30.7-28.2,2.2-63.6-10-52.8-18.7,21.8-17.5,20.8-29.1,49-31.2,17.2-1.3,43.7,19.5,56.6,19.2Z"/><path class="uuid-0a6cb459-8217-418e-b05d-93a899c895a8" d="m61.5,93c-26.2-.6-53.9-11.8-44.1-18.9,19.7-14.4,21.1-22.6,41.7-25.7"/><path class="uuid-ceca500a-9332-4f8d-b371-7eaabf0d02fa" d="m59,48.3c2.3-.3,4.9-.6,7.7-.8,13.2-1,40.5,15.7,52.8,18.7,13.3,3.2-21.1,24.4-49.4,26.5-2.8.2-5.7.3-8.7.2"/><ellipse class="uuid-dce6df8b-90d0-45d8-83e1-3e1c73729451" cx="61.8" cy="70.5" rx="18.9" ry="22.4" transform="translate(-5.2 4.9) rotate(-4.4)"/><ellipse class="uuid-1ca7fb99-1a28-46b4-a74a-35a059ea4337" cx="60.7" cy="70.6" rx="12.8" ry="22.4" transform="translate(-5.2 4.8) rotate(-4.4)"/><circle class="uuid-63da9b3a-08bb-4c12-8710-6c201fe7553d" cx="57.4" cy="70.4" r="7.7"/><circle class="uuid-3884a7ab-4841-422e-bb06-5f8b36307cbe" cx="67.2" cy="80.4" r="3.7"/><path class="uuid-416b402d-6739-4dcc-b46b-b1698cb26503" d="m13,88.5c.6-2.6,2.2-7.4,5.4-7.3-1.8,1.5-3.4,3.1-4.4,5.2-.4.7-.7,1.4-1,2.1h0Z"/><path class="uuid-416b402d-6739-4dcc-b46b-b1698cb26503" d="m16.7,89.7c.6-2.6,2.2-7.4,5.4-7.3-1.8,1.5-3.4,3.1-4.4,5.2-.4.7-.7,1.4-1,2.1h0Z"/><path class="uuid-416b402d-6739-4dcc-b46b-b1698cb26503" d="m20.1,91.2c.6-2.6,2.2-7.4,5.4-7.3-1.8,1.5-3.4,3.1-4.4,5.2-.4.7-.7,1.4-1,2.1h0Z"/><path class="uuid-416b402d-6739-4dcc-b46b-b1698cb26503" d="m107.8,61.5c5.4-5.5,9.8-13.6,6.8-21.4,0,0,0,0,0,0,4.8,7.3-1.2,16.7-6.9,21.4h0Z"/><path class="uuid-416b402d-6739-4dcc-b46b-b1698cb26503" d="m103.2,57.2c5.4-5.5,9.8-13.6,6.8-21.4,0,0,0,0,0,0,4.8,7.3-1.2,16.7-6.9,21.4h0Z"/><path class="uuid-416b402d-6739-4dcc-b46b-b1698cb26503" d="m98.3,54.6c5.4-5.5,9.8-13.6,6.8-21.4,0,0,0,0,0,0,4.8,7.3-1.2,16.7-6.9,21.4h0Z"/><g><path class="uuid-d75cd762-e867-4427-a1eb-2a7f5a1f8543" d="m28.6,64.9s-14.9,13.2,5.5,23.8c-14-4.1-22.9-10.2-16.7-14.7,4.8-3.5,8.1-6.3,11.2-9.1"/><polygon class="uuid-d75cd762-e867-4427-a1eb-2a7f5a1f8543" points="34.1 88.8 34.1 88.8 34.1 88.8 34.1 88.8"/></g></g><rect class="uuid-93db83fa-8316-4af2-8d4b-aa258415c897" width="138.4" height="138.4"/></g></g></svg>